<svg version="1.1" xmlns="http://www.w3.org/2000/svg" viewBox="-846.7130673527768 -2485.1556794535227 4583.485612886873 3573.2147616581105"><desc>Created with Snap</desc><defs></defs><g><g transform="matrix(10.1417,0,0,10.1417,-621.9693,-2745.0948)">
<g id="gSkzxzvkav1oy">
	<path d="M317.9281,155.65147c-30.98956,7.31404-46.23932-11.77283-62.95764-64.39297
		c-22.81844-71.81998-97.04111-20.6673-137.30415,34.09873c-36.01472,48.98745-100.43337,28.2066-108.71796,96.60006
		C1.05756,287.09979,51.2933,341.39026,114.88862,347.1629c44.93644,4.07898,74.15717-17.45844,113.5048-32.92603
		c50.53844-19.86673,37.44051-0.93326,86.27327,8.58145c60.94122,11.87393,88.18268-44.41559,84.49582-82.9597
		S385.17041,139.7812,317.9281,155.65147z" fill="#6daedb" style=""></path>
</g>


<desc>Created with Snap</desc><defs></defs></g><g><g transform="matrix(0.512,0,0,-0.512,0,0)"><path d="M758 -16Q551 -20 400 78Q249 177 169 352Q89 528 94 754Q99 1003 192 1169Q286 1335 441 1418Q597 1501 788 1502Q986 1503 1133 1409Q1280 1316 1359 1145Q1439 974 1434 744Q1429 495 1340 327Q1251 160 1100 74Q949 -12 758 -16ZM764 164Q962 164 1079 313Q1196 463 1196 754Q1196 908 1149 1037Q1103 1167 1010 1245Q918 1324 780 1324Q659 1324 557 1262Q455 1200 393 1071Q332 942 332 740Q332 587 380 455Q429 324 525 244Q621 164 764 164ZM1818 -22Q1758 -22 1714 22Q1670 67 1668 133Q1667 182 1690 222Q1714 262 1752 286Q1790 310 1832 310Q1905 310 1943 264Q1981 218 1982 156Q1984 106 1961 65Q1938 25 1900 1Q1862 -22 1818 -22ZM2219 736Q2219 929 2273 1072Q2327 1216 2422 1311Q2518 1407 2645 1454Q2772 1502 2918 1502Q3030 1502 3097 1492Q3165 1483 3217 1469Q3270 1456 3335 1444L3325 1235Q3254 1271 3162 1294Q3071 1318 2907 1318Q2777 1318 2676 1252Q2576 1186 2519 1062Q2462 938 2462 762Q2462 594 2510 458Q2558 322 2656 242Q2755 163 2907 163Q2988 163 3069 176Q3151 189 3193 216L3193 610L3252 569L2931 583L2931 754L3419 754L3419 91Q3386 89 3345 72Q3304 56 3247 35Q3190 15 3108 -1Q3027 -16 2913 -16Q2692 -16 2537 81Q2382 179 2300 349Q2219 519 2219 736ZM3823 -22Q3763 -22 3719 22Q3675 67 3673 133Q3672 182 3695 222Q3719 262 3757 286Q3795 310 3837 310Q3910 310 3948 264Q3986 218 3987 156Q3989 106 3966 65Q3943 25 3905 1Q3867 -22 3823 -22ZM4886 -16Q4679 -20 4528 78Q4377 177 4297 352Q4217 528 4222 754Q4227 1003 4320 1169Q4414 1335 4569 1418Q4725 1501 4916 1502Q5114 1503 5261 1409Q5408 1316 5487 1145Q5567 974 5562 744Q5557 495 5468 327Q5379 160 5228 74Q5077 -12 4886 -16ZM4892 164Q5090 164 5207 313Q5324 463 5324 754Q5324 908 5277 1037Q5231 1167 5138 1245Q5046 1324 4908 1324Q4787 1324 4685 1262Q4583 1200 4521 1071Q4460 942 4460 740Q4460 587 4508 455Q4557 324 4653 244Q4749 164 4892 164Z" fill="#173753" style=""></path></g></g></g></svg>